<?xml version="1.0" encoding="UTF-8" standalone="no"?><!DOCTYPE svg PUBLIC "-//W3C//DTD SVG 1.1//EN" "http://www.w3.org/Graphics/SVG/1.1/DTD/svg11.dtd"><svg width="100%" height="100%" viewBox="0 0 24 24" version="1.1" xmlns="http://www.w3.org/2000/svg" xmlns:xlink="http://www.w3.org/1999/xlink" xml:space="preserve" xmlns:serif="http://www.serif.com/" style="fill-rule:evenodd;clip-rule:evenodd;stroke-linejoin:round;stroke-miterlimit:1.41421;"><rect x="0" y="0" width="24" height="24" style="fill:none;"/><path d="M20.01,15.38c-1.23,0 -2.42,-0.2 -3.53,-0.56c-0.35,-0.12 -0.74,-0.03 -1.01,0.24l-1.57,1.97c-2.83,-1.35 -5.48,-3.9 -6.89,-6.83l1.95,-1.66c0.27,-0.28 0.35,-0.67 0.24,-1.02c-0.37,-1.11 -0.56,-2.3 -0.56,-3.53c0,-0.54 -0.45,-0.99 -0.99,-0.99l-3.46,0c-0.54,0 -1.19,0.24 -1.19,0.99c0,9.29 7.73,17.01 17.01,17.01c0.71,0 0.99,-0.63 0.99,-1.18l0,-3.45c0,-0.54 -0.45,-0.99 -0.99,-0.99Z" style="fill:#fff;fill-rule:nonzero;"/></svg>