<?xml version="1.0" encoding="UTF-8" standalone="no"?><!DOCTYPE svg PUBLIC "-//W3C//DTD SVG 1.1//EN" "http://www.w3.org/Graphics/SVG/1.1/DTD/svg11.dtd"><svg width="100%" height="100%" viewBox="0 0 24 24" version="1.1" xmlns="http://www.w3.org/2000/svg" xmlns:xlink="http://www.w3.org/1999/xlink" xml:space="preserve" xmlns:serif="http://www.serif.com/" style="fill-rule:evenodd;clip-rule:evenodd;stroke-linejoin:round;stroke-miterlimit:1.41421;"><rect x="0" y="0" width="24" height="24" style="fill:none;"/><path d="M12,9c-1.6,0 -3.15,0.25 -4.6,0.72l0,3.1c0,0.39 -0.23,0.74 -0.56,0.9c-0.98,0.49 -1.87,1.12 -2.66,1.85c-0.18,0.18 -0.43,0.28 -0.7,0.28c-0.28,0 -0.53,-0.11 -0.71,-0.29l-2.48,-2.48c-0.18,-0.17 -0.29,-0.42 -0.29,-0.7c0,-0.28 0.11,-0.53 0.29,-0.71c3.05,-2.89 7.17,-4.67 11.71,-4.67c4.54,0 8.66,1.78 11.71,4.67c0.18,0.18 0.29,0.43 0.29,0.71c0,0.28 -0.11,0.53 -0.29,0.71l-2.48,2.48c-0.18,0.18 -0.43,0.29 -0.71,0.29c-0.27,0 -0.52,-0.11 -0.7,-0.28c-0.79,-0.74 -1.69,-1.36 -2.67,-1.85c-0.33,-0.16 -0.56,-0.5 -0.56,-0.9l0,-3.1c-1.44,-0.48 -2.99,-0.73 -4.59,-0.73Z" style="fill:#fff;fill-rule:nonzero;"/></svg>