<?xml version="1.0" encoding="UTF-8" standalone="no"?><!DOCTYPE svg PUBLIC "-//W3C//DTD SVG 1.1//EN" "http://www.w3.org/Graphics/SVG/1.1/DTD/svg11.dtd"><svg width="100%" height="100%" viewBox="0 0 24 24" version="1.1" xmlns="http://www.w3.org/2000/svg" xmlns:xlink="http://www.w3.org/1999/xlink" xml:space="preserve" xmlns:serif="http://www.serif.com/" style="fill-rule:evenodd;clip-rule:evenodd;stroke-linejoin:round;stroke-miterlimit:1.41421;"><path d="M12,14c1.66,0 2.99,-1.34 2.99,-3l0.01,-6c0,-1.66 -1.34,-3 -3,-3c-1.66,0 -3,1.34 -3,3l0,6c0,1.66 1.34,3 3,3Zm5.3,-3c0,3 -2.54,5.1 -5.3,5.1c-2.76,0 -5.3,-2.1 -5.3,-5.1l-1.7,0c0,3.41 2.72,6.23 6,6.72l0,3.28l2,0l0,-3.28c3.28,-0.48 6,-3.3 6,-6.72l-1.7,0Z" style="fill:#fff;fill-rule:nonzero;"/><rect x="0" y="0" width="24" height="24" style="fill:none;"/></svg>