<?xml version="1.0" encoding="UTF-8" standalone="no"?><!DOCTYPE svg PUBLIC "-//W3C//DTD SVG 1.1//EN" "http://www.w3.org/Graphics/SVG/1.1/DTD/svg11.dtd"><svg width="100%" height="100%" viewBox="0 0 24 24" version="1.1" xmlns="http://www.w3.org/2000/svg" xmlns:xlink="http://www.w3.org/1999/xlink" xml:space="preserve" xmlns:serif="http://www.serif.com/" style="fill-rule:evenodd;clip-rule:evenodd;stroke-linejoin:round;stroke-miterlimit:1.41421;"><path d="M0,0l24,0l0,24l-24,0l0,-24Zm0,0l24,0l0,24l-24,0l0,-24Z" style="fill:none;"/><path d="M19,11l-1.7,0c0,0.74 -0.16,1.43 -0.43,2.05l1.23,1.23c0.56,-0.98 0.9,-2.09 0.9,-3.28Zm-4.02,0.17c0,-0.06 0.02,-0.11 0.02,-0.17l0,-6c0,-1.66 -1.34,-3 -3,-3c-1.66,0 -3,1.34 -3,3l0,0.18l5.98,5.99Zm-10.71,-8.17l-1.27,1.27l6.01,6.01l0,0.72c0,1.66 1.33,3 2.99,3c0.22,0 0.44,-0.03 0.65,-0.08l1.66,1.66c-0.71,0.33 -1.5,0.52 -2.31,0.52c-2.76,0 -5.3,-2.1 -5.3,-5.1l-1.7,0c0,3.41 2.72,6.23 6,6.72l0,3.28l2,0l0,-3.28c0.91,-0.13 1.77,-0.45 2.54,-0.9l4.19,4.18l1.27,-1.27l-16.73,-16.73Z" style="fill:#fff;fill-rule:nonzero;"/></svg>